<?xml version="1.0" encoding="iso-8859-1"?>
<!-- Generator: Adobe Illustrator 19.0.0, SVG Export Plug-In . SVG Version: 6.00 Build 0)  -->
<svg version="1.1" id="Capa_1" xmlns="http://www.w3.org/2000/svg" xmlns:xlink="http://www.w3.org/1999/xlink" x="0px" y="0px"
	 viewBox="0 0 60 60" style="enable-background:new 0 0 60 60;" xml:space="preserve">
<path style="fill:#BDC3C7;stroke:#ECF0F1;stroke-width:2;stroke-linecap:round;stroke-miterlimit:10;" d="M47.611,59H12.389
	C6.099,59,1,53.901,1,47.611V12.389C1,6.099,6.099,1,12.389,1h35.222C53.901,1,59,6.099,59,12.389v35.222
	C59,53.901,53.901,59,47.611,59z"/>
<path style="fill:#ECF0F1;" d="M46.625,56h-33.25C8.197,56,4,51.803,4,46.625v-33.25C4,8.197,8.197,4,13.375,4h33.25
	C51.803,4,56,8.197,56,13.375v33.25C56,51.803,51.803,56,46.625,56z"/>
<path style="fill:#BDC3C7;" d="M22.121,56.683c-0.256,0-0.512-0.098-0.707-0.293c-0.391-0.391-0.391-1.023,0-1.414
	c0.785-0.785,0.785-1.801,0-2.586c-1.568-1.568-1.568-3.846,0-5.414c0.39-0.391,1.023-0.391,1.414,0s0.391,1.023,0,1.414
	c-0.785,0.785-0.785,1.801,0,2.586c1.568,1.568,1.568,3.846,0,5.414C22.633,56.585,22.376,56.683,22.121,56.683z"/>
<path style="fill:#BDC3C7;" d="M41.167,56.683c-0.256,0-0.512-0.098-0.707-0.293c-0.391-0.391-0.391-1.023,0-1.414
	c0.713-0.714-0.621-2.16-1.047-2.586c-1.568-1.568-1.568-3.846,0-5.414c0.39-0.391,1.023-0.391,1.414,0s0.391,1.023,0,1.414
	c-0.785,0.785-0.785,1.801,0,2.586c2.022,2.023,2.414,4.047,1.047,5.414C41.679,56.585,41.423,56.683,41.167,56.683z"/>
<path style="fill:#BDC3C7;" d="M30.879,56.683c-0.256,0-0.512-0.098-0.707-0.293c-0.391-0.391-0.391-1.023,0-1.414
	c0.785-0.785,0.785-1.801,0-2.586c-1.568-1.568-1.568-3.846,0-5.414c0.39-0.391,1.023-0.391,1.414,0s0.391,1.023,0,1.414
	c-0.785,0.785-0.785,1.801,0,2.586c1.568,1.568,1.568,3.846,0,5.414C31.392,56.585,31.135,56.683,30.879,56.683z"/>
<path style="fill:#BDC3C7;" d="M30.547,14.5c-0.256,0-0.512-0.098-0.707-0.293c-1.626-1.627-1.626-4.274,0-5.901
	c0.852-0.853,0.84-2.735-0.023-3.599c-0.391-0.391-0.391-1.023,0-1.414s1.023-0.391,1.414,0c1.628,1.628,1.639,4.811,0.023,6.427
	c-0.847,0.848-0.847,2.226,0,3.073c0.391,0.391,0.391,1.023,0,1.414C31.059,14.402,30.803,14.5,30.547,14.5z"/>
<path style="fill:#FFFFFF;" d="M37,30.79c0-6.915,1.941-10.842,2.314-11.682c2.544-5.74,10.781-5.36,12.429,0.762
	c0.012,0.043,0.023,0.087,0.034,0.13c0.286,1.135,0.201,5.248-0.101,6.378c-0.206,0.772-0.536,1.704-1.055,2.571
	c-1.403,2.344-4.689,2.665-6.621,0.733l0,0c0,0-3.125-4.375-3,1v16.03c0,0.536-0.434,0.97-0.97,0.97H37.97
	c-0.536,0-0.97-0.434-0.97-0.97v-13.03V30.79z"/>
<path style="fill:#BDC3C7;" d="M45.49,15.03c2.715,0,5.388,1.631,6.252,4.84c0.012,0.043,0.023,0.087,0.034,0.13
	c0.286,1.135,0.201,5.248-0.101,6.378c-0.206,0.772-0.536,1.704-1.055,2.571c-0.788,1.316-2.169,1.994-3.571,1.994
	c-1.095,0-2.203-0.414-3.05-1.261c0,0-1.199-1.679-2.082-1.679c-0.542,0-0.965,0.633-0.918,2.679v16.03
	c0,0.536-0.434,0.97-0.97,0.97H37.97c-0.536,0-0.97-0.434-0.97-0.97v-13.03V30.79c0-6.915,1.941-10.842,2.314-11.682
	C40.524,16.376,43.025,15.031,45.49,15.03 M45.491,14.03L45.491,14.03c-3.097,0-5.814,1.791-7.091,4.672l-0.062,0.139
	C36.786,22.264,36,26.284,36,30.79v2.893v13.03c0,1.086,0.884,1.97,1.97,1.97h2.061c1.086,0,1.97-0.884,1.97-1.97v-16.03
	c-0.02-0.855,0.049-1.322,0.111-1.565c0.288,0.216,0.754,0.696,1.075,1.147l0.048,0.067l0.059,0.059
	c1.002,1.002,2.336,1.554,3.757,1.554c1.843,0,3.499-0.927,4.429-2.481c0.488-0.815,0.879-1.766,1.163-2.826
	c0.326-1.219,0.443-5.537,0.105-6.881l-0.038-0.146C51.796,16.221,48.963,14.03,45.491,14.03L45.491,14.03z"/>
<path style="fill:#FFFFFF;" d="M30.5,47.683h-1c-1.925,0-3.5-1.575-3.5-3.5V17c0-1.925,1.575-3.5,3.5-3.5h1
	c1.925,0,3.5,1.575,3.5,3.5v27.183C34,46.108,32.425,47.683,30.5,47.683z"/>
<path style="fill:#BDC3C7;" d="M30.5,48.183h-1c-2.206,0-4-1.794-4-4V17c0-2.206,1.794-4,4-4h1c2.206,0,4,1.794,4,4v27.183
	C34.5,46.389,32.706,48.183,30.5,48.183z M29.5,14c-1.654,0-3,1.346-3,3v27.183c0,1.654,1.346,3,3,3h1c1.654,0,3-1.346,3-3V17
	c0-1.654-1.346-3-3-3H29.5z"/>
<path style="fill:#C6C6C6;" d="M31,43h-2c-0.552,0-1-0.447-1-1s0.448-1,1-1h2c0.552,0,1,0.447,1,1S31.552,43,31,43z"/>
<path style="fill:#C6C6C6;" d="M30,22c-0.552,0-1-0.447-1-1v-4c0-0.553,0.448-1,1-1s1,0.447,1,1v4C31,21.553,30.552,22,30,22z"/>
<path style="fill:#C6C6C6;" d="M48.953,26L48.953,26c-0.55,0-1-0.45-1-1v-4c0-0.55,0.45-1,1-1l0,0c0.55,0,1,0.45,1,1v4
	C49.953,25.55,49.503,26,48.953,26z"/>
<path style="fill:#FFFFFF;" d="M23,30.79c0-7.748-1.941-10.842-2.314-11.682c-2.544-5.74-10.781-5.36-12.429,0.762
	C8.246,19.913,8.235,19.957,8.224,20c-0.286,1.135-0.201,5.248,0.101,6.378c0.206,0.772,0.536,1.704,1.055,2.571
	c1.403,2.344,4.689,2.665,6.621,0.733l0,0c0,0,3.125-4.375,3,1v16.03c0,0.536,0.434,0.97,0.97,0.97h2.061
	c0.536,0,0.97-0.434,0.97-0.97v-13.03V30.79z"/>
<path style="fill:#BDC3C7;" d="M22.03,48.183H19.97c-0.811,0-1.47-0.659-1.47-1.47v-16.03c0.038-1.633-0.243-2.049-0.33-2.138
	c-0.452-0.054-1.255,0.719-1.764,1.429c-0.961,0.971-2.169,1.47-3.457,1.47c-1.666,0-3.161-0.836-4-2.237
	c-0.464-0.774-0.836-1.683-1.108-2.698c-0.307-1.146-0.42-5.369-0.103-6.63l0.036-0.14c0.851-3.163,3.495-5.208,6.734-5.208
	c2.896,0,5.438,1.677,6.634,4.376c0.034,0.075,0.082,0.171,0.14,0.288c0.606,1.225,2.217,4.479,2.217,11.596v15.923
	C23.5,47.523,22.841,48.183,22.03,48.183z M18.082,27.504c0.307,0,0.585,0.118,0.804,0.342c0.454,0.464,0.648,1.369,0.614,2.849
	v16.019c0,0.259,0.211,0.47,0.47,0.47h2.061c0.259,0,0.47-0.211,0.47-0.47V30.79c0-6.884-1.535-9.984-2.113-11.151
	c-0.066-0.133-0.119-0.241-0.157-0.328c-1.033-2.332-3.225-3.78-5.72-3.78c-2.773,0-5.038,1.755-5.769,4.47l-0.032,0.121
	c-0.258,1.025-0.193,5.034,0.099,6.129c0.248,0.926,0.584,1.747,1.001,2.442c0.656,1.097,1.831,1.751,3.142,1.751
	c1.02,0,1.978-0.396,2.696-1.114C15.818,29.077,16.997,27.504,18.082,27.504z"/>
<path style="fill:#C6C6C6;" d="M10.953,26L10.953,26c0.55,0,1-0.45,1-1v-4c0-0.55-0.45-1-1-1h0c-0.55,0-1,0.45-1,1v4
	C9.953,25.55,10.403,26,10.953,26z"/>
<path style="fill:#C6C6C6;" d="M32,20h-4c-0.552,0-1-0.447-1-1s0.448-1,1-1h4c0.552,0,1,0.447,1,1S32.552,20,32,20z"/>
<g>
</g>
<g>
</g>
<g>
</g>
<g>
</g>
<g>
</g>
<g>
</g>
<g>
</g>
<g>
</g>
<g>
</g>
<g>
</g>
<g>
</g>
<g>
</g>
<g>
</g>
<g>
</g>
<g>
</g>
</svg>
